HIERARCHY
ROOT hip
{
  OFFSET 0 0 0
  CHANNELS 6 Xposition Yposition Zposition Zrotation Yrotation Xrotation
  JOINT abdomen
  {
    OFFSET 0 20.6881 -0.73152
    CHANNELS 3 Zrotation Xrotation Yrotation
    JOINT chest
    {
      OFFSET 0 11.7043 -0.48768
      CHANNELS 3 Zrotation Xrotation Yrotation
      JOINT neck
      {
        OFFSET 0 22.1894 -2.19456
        CHANNELS 3 Zrotation Xrotation Yrotation
        JOINT head
        {
          OFFSET -0.24384 7.07133 1.2192
          CHANNELS 3 Zrotation Xrotation Yrotation
          JOINT leftEye
          {
            OFFSET 4.14528 8.04674 8.04672
            CHANNELS 3 Zrotation Xrotation Yrotation
            End Site
            {
              OFFSET 1 0 0
            }
          }
          JOINT rightEye
          {
            OFFSET -3.6576 8.04674 8.04672
            CHANNELS 3 Zrotation Xrotation Yrotation
            End Site
            {
              OFFSET 1 0 0
            }
          }
        }
      }
      JOINT rCollar
      {
        OFFSET -2.68224 19.2634 -4.8768
        CHANNELS 3 Zrotation Xrotation Yrotation
        JOINT rShldr
        {
          OFFSET -8.77824 -1.95073 1.46304
          CHANNELS 3 Zrotation Xrotation Yrotation
          JOINT rForeArm
          {
            OFFSET -28.1742 -1.7115 0.48768
            CHANNELS 3 Zrotation Xrotation Yrotation
            JOINT rHand
            {
              OFFSET -22.5879 0.773209 7.07136
              CHANNELS 3 Zrotation Xrotation Yrotation
              JOINT rThumb1
              {
                OFFSET -1.2192 -0.487915 3.41376
                CHANNELS 3 Zrotation Xrotation Yrotation
                JOINT rThumb2
                {
                  OFFSET -3.37035 -0.52449 3.41376
                  CHANNELS 3 Zrotation Xrotation Yrotation
                  End Site
                  {
                    OFFSET -1.78271 -1.18214 1.43049
                  }
                }
              }
              JOINT rIndex1
              {
                OFFSET -7.75947 0.938293 5.60832
                CHANNELS 3 Zrotation Xrotation Yrotation
                JOINT rIndex2
                {
                  OFFSET -2.54057 -0.884171 1.56538
                  CHANNELS 3 Zrotation Xrotation Yrotation
                  End Site
                  {
                    OFFSET -1.62519 -0.234802 1.16502
                  }
                }
              }
              JOINT rMid1
              {
                OFFSET -8.24714 1.18213 3.41376
                CHANNELS 3 Zrotation Xrotation Yrotation
                JOINT rMid2
                {
                  OFFSET -3.10165 -0.590103 1.0647
                  CHANNELS 3 Zrotation Xrotation Yrotation
                  End Site
                  {
                    OFFSET -2.48547 -0.328903 0.83742
                  }
                }
              }
              JOINT rRing1
              {
                OFFSET -8.82822 0.546677 1.51678
                CHANNELS 3 Zrotation Xrotation Yrotation
                JOINT rRing2
                {
                  OFFSET -2.60934 -0.819778 -0.0198488
                  CHANNELS 3 Zrotation Xrotation Yrotation
                  End Site
                  {
                    OFFSET -2.33842 -0.294052 0.168128
                  }
                }
              }
              JOINT rPinky1
              {
                OFFSET -8.27202 -0.0477905 -0.4584
                CHANNELS 3 Zrotation Xrotation Yrotation
                JOINT rPinky2
                {
                  OFFSET -1.82734 -0.647385 -0.700984
                  CHANNELS 3 Zrotation Xrotation Yrotation
                  End Site
                  {
                    OFFSET -1.69225 -0.51767 -0.607171
                  }
                }
              }
            }
          }
        }
      }
      JOINT lCollar
      {
        OFFSET 2.68224 19.2634 -4.8768
        CHANNELS 3 Zrotation Xrotation Yrotation
        JOINT lShldr
        {
          OFFSET 8.77824 -1.95073 1.46304
          CHANNELS 3 Zrotation Xrotation Yrotation
          JOINT lForeArm
          {
            OFFSET 28.1742 -1.7115 0.48768
            CHANNELS 3 Zrotation Xrotation Yrotation
            JOINT lHand
            {
              OFFSET 22.5879 0.773209 7.07136
              CHANNELS 3 Zrotation Xrotation Yrotation
              JOINT lThumb1
              {
                OFFSET 1.2192 -0.487915 3.41376
                CHANNELS 3 Zrotation Xrotation Yrotation
                JOINT lThumb2
                {
                  OFFSET 3.37035 -0.52449 3.41376
                  CHANNELS 3 Zrotation Xrotation Yrotation
                  End Site
                  {
                    OFFSET 1.78271 -1.18214 1.43049
                  }
                }
              }
              JOINT lIndex1
              {
                OFFSET 7.75947 0.938293 5.60832
                CHANNELS 3 Zrotation Xrotation Yrotation
                JOINT lIndex2
                {
                  OFFSET 2.54057 -0.884171 1.56538
                  CHANNELS 3 Zrotation Xrotation Yrotation
                  End Site
                  {
                    OFFSET 1.62519 -0.234802 1.16502
                  }
                }
              }
              JOINT lMid1
              {
                OFFSET 8.24714 1.18213 3.41376
                CHANNELS 3 Zrotation Xrotation Yrotation
                JOINT lMid2
                {
                  OFFSET 3.10165 -0.590103 1.0647
                  CHANNELS 3 Zrotation Xrotation Yrotation
                  End Site
                  {
                    OFFSET 2.48547 -0.328903 0.83742
                  }
                }
              }
              JOINT lRing1
              {
                OFFSET 8.82822 0.546677 1.51678
                CHANNELS 3 Zrotation Xrotation Yrotation
                JOINT lRing2
                {
                  OFFSET 2.60934 -0.819778 -0.0198488
                  CHANNELS 3 Zrotation Xrotation Yrotation
                  End Site
                  {
                    OFFSET 2.33842 -0.294052 0.168128
                  }
                }
              }
              JOINT lPinky1
              {
                OFFSET 8.27202 -0.0477905 -0.4584
                CHANNELS 3 Zrotation Xrotation Yrotation
                JOINT lPinky2
                {
                  OFFSET 1.82734 -0.647385 -0.700984
                  CHANNELS 3 Zrotation Xrotation Yrotation
                  End Site
                  {
                    OFFSET 1.69225 -0.51767 -0.607171
                  }
                }
              }
            }
          }
        }
      }
    }
  }
  JOINT rButtock
  {
    OFFSET -8.77824 4.35084 1.2192
    CHANNELS 3 Zrotation Xrotation Yrotation
    JOINT rThigh
    {
      OFFSET 0 -1.70687 -2.19456
      CHANNELS 3 Zrotation Xrotation Yrotation
      JOINT rShin
      {
        OFFSET 0 -36.8199 0.73152
        CHANNELS 3 Zrotation Xrotation Yrotation
        JOINT rFoot
        {
          OFFSET 0.73152 -45.1104 -5.12064
          CHANNELS 3 Zrotation Xrotation Yrotation
          End Site
          {
            OFFSET -1.1221 -3.69964 12.103
          }
        }
      }
    }
  }
  JOINT lButtock
  {
    OFFSET 8.77824 4.35084 1.2192
    CHANNELS 3 Zrotation Xrotation Yrotation
    JOINT lThigh
    {
      OFFSET 0 -1.70687 -2.19456
      CHANNELS 3 Zrotation Xrotation Yrotation
      JOINT lShin
      {
        OFFSET 0 -36.8199 0.73152
        CHANNELS 3 Zrotation Xrotation Yrotation
        JOINT lFoot
        {
          OFFSET -0.73152 -45.1104 -5.12064
          CHANNELS 3 Zrotation Xrotation Yrotation
          End Site
          {
            OFFSET 1.1221 -3.69964 12.103
          }
        }
      }
    }
  }
}
MOTION
Frames:	4
Frame Time:	0.03333
0.1873999936391324 55.20360036275362 0.3912999900852967 6.726799964904785 22.435802459716797 8.259299278259277 -12.846999168395996 12.430001258850098 -0.7165228128433228 5.531249523162842 -9.595590591430664 -0.0072382851503789425 -6.478250503540039 15.854100227355957 -8.322599411010742 12.143200874328613 -31.74090003967285 -13.198997497558594 -0.0 0.0 -0.0 -0.0 0.0 -0.0 -1.4423699864693496e-13 1.0177699882960717e-13 -5.119199877369474e-13 46.85859680175781 33.24649429321289 1.666129231452942 -28.14349937438965 -31.54869842529297 69.72750091552734 -0.006361970212310553 2.2768101692199707 0.3201550245285034 7.69696972824363e-10 -2.0967299008134432e-09 1.3015599709120806e-09 1.3331400428029383e-09 -3.5834497591480385e-09 2.242289909304418e-09 7.697019688279738e-10 -2.0967498848278865e-09 1.301549978904859e-09 7.730909824371338 5.474879741668701 0.4173140823841095 7.696959736236408e-10 -2.0967299008134432e-09 1.3015599709120806e-09 2.9055399894714355 0.9651829600334167 0.10290199518203735 7.697000259376807e-10 -2.0967299008134432e-09 1.3015599709120806e-09 10.27859878540039 0.73180091381073 0.025912316516041756 7.696889792185857e-10 -2.0967299008134432e-09 1.3015799549265239e-09 2.221669912338257 -0.733487069606781 -0.208919957280159 -1.4440800443459023e-13 1.0177699882960717e-13 -5.12217980704055e-13 -37.83140182495117 48.1781005859375 -46.72130584716797 28.394699096679688 -37.11960220336914 -78.89899444580078 1.2152400016784668 -29.651403427124023 4.588869571685791 -8.368319925899925e-10 2.9341398199989044e-09 -1.8356198783209265e-09 -1.4083098021089313e-09 4.818550003449218e-09 -3.1823998991598046e-09 -8.368329362795635e-10 2.9341398199989044e-09 -1.8356198783209265e-09 -7.730909824371338 5.474879741668701 -0.4173140823841095 -8.36829938677397e-10 2.9341398199989044e-09 -1.8356198783209265e-09 -2.9055399894714355 0.9651829600334167 -0.10290199518203735 -8.368319925899925e-10 2.9341398199989044e-09 -1.8356198783209265e-09 -10.27859878540039 0.73180091381073 -0.025912316516041756 -8.368289394766748e-10 2.9341398199989044e-09 -1.8356297593058457e-09 -2.221669912338257 -0.733487069606781 0.208919957280159 -2.0321699480147914e-16 0.0 -3.8825099822884138e-19 -62.01720428466797 -57.111900329589844 -67.59829711914062 -4.503119468688965 78.92953491210938 4.935519218444824 -2.390009880065918 -3.459480047225952 -8.096450805664062 2.0321699480147914e-16 0.0 3.8825099822884138e-19 11.462499618530273 3.0620806217193604 4.233550071716309 -0.0269290991127491 41.896400451660156 -2.90455961227417 14.302497863769531 -21.638303756713867 36.47480392456055
0.33569999574535825 55.27049865057931 0.9409999644294169 7.639599800109863 22.40270233154297 9.282998085021973 -13.159900665283203 12.021501541137695 -1.6922998428344727 5.6620306968688965 -9.740951538085938 -0.253033846616745 -6.5495805740356445 15.421600341796875 -7.953341007232666 12.143600463867188 -31.96619987487793 -12.404899597167969 -0.0 0.0 -0.0 -0.0 0.0 -0.0 -1.691190048246083e-13 3.537889924597193e-13 2.0201500316855726e-14 47.132198333740234 32.82919692993164 0.7197877764701843 -28.099102020263672 -31.235095977783203 69.21870422363281 -0.008027869276702404 2.579320192337036 0.3627399504184723 -6.327239843173516e-10 1.960089868191517e-10 -1.3796098985441319e-10 -1.094410007063118e-09 3.3579697356067584e-10 -2.400580012551501e-10 -6.327169899122964e-10 1.9599098732836495e-10 -1.3796200293292316e-10 7.730909824371338 5.474879741668701 0.4173140823841095 -6.327239843173516e-10 1.960169943027168e-10 -1.3795899145296886e-10 2.9055399894714355 0.9651829600334167 0.10290199518203735 -6.32719043824892e-10 1.9600099321337439e-10 -1.3795599385080237e-10 10.27859878540039 0.73180091381073 0.025912316516041756 -6.327349200141441e-10 1.9600300549260652e-10 -1.3794600184358075e-10 2.221669912338257 -0.733487069606781 -0.208919957280159 -1.692889806201997e-13 3.5378400512972585e-13 1.9928198360160548e-14 -36.140193939208984 46.45249938964844 -50.30780792236328 28.411699295043945 -36.77050018310547 -78.30389404296875 0.9930499196052551 -27.182899475097656 4.135160446166992 3.372049861560811e-10 -1.0197099831188439e-09 -1.2879399768905841e-09 6.072349290064949e-10 -1.9212198498763655e-09 -2.2148500811169924e-09 3.372020163094902e-10 -1.0197099831188439e-09 -1.2879299848833625e-09 -7.730909824371338 5.474879741668701 -0.4173140823841095 3.372069845575254e-10 -1.0197099831188439e-09 -1.2879399768905841e-09 -2.9055399894714355 0.9651829600334167 -0.10290199518203735 3.3720098935319243e-10 -1.0197099831188439e-09 -1.2879399768905841e-09 -10.27859878540039 0.73180091381073 -0.025912316516041756 3.3720898295896973e-10 -1.0196899991044006e-09 -1.2879500799201082e-09 -2.221669912338257 -0.733487069606781 0.208919957280159 -2.0321699480147914e-16 0.0 -3.8825099822884138e-19 -63.481300354003906 -56.960697174072266 -69.83289337158203 -4.305850028991699 78.64071655273438 4.843389987945557 -3.3813693523406982 -4.231370449066162 -12.003497123718262 2.0321699480147914e-16 0.0 3.8825099822884138e-19 10.291800498962402 3.434189796447754 3.881439685821533 -0.055120497941970825 40.3682975769043 -2.8648900985717773 14.052999496459961 -21.412296295166016 36.369102478027344
0.4002999982865116 55.410199924768165 1.591499977266291 8.228999137878418 21.99370002746582 10.20199966430664 -13.174200057983398 11.465099334716797 -2.736959934234619 5.691079616546631 -9.903891563415527 -0.5175390839576721 -6.641800403594971 14.86569881439209 -7.481260776519775 11.909899711608887 -31.93160057067871 -11.481698036193848 -0.0 0.0 -0.0 -0.0 0.0 -0.0 -1.171869947001053e-13 4.595919456638897e-13 3.976689854148785e-13 47.61369705200195 32.518104553222656 -0.42519691586494446 -28.055797576904297 -30.95589828491211 68.77680206298828 -0.010552499443292618 2.9316604137420654 0.41238200664520264 -1.8603399931649278e-09 -3.713899632273865e-09 -6.690900056227633e-10 -3.2171298958161287e-09 -6.448360068134207e-09 -1.1529099896989692e-09 -1.8603300011577062e-09 -3.7139098463256914e-09 -6.690840104184304e-10 7.730909824371338 5.474879741668701 0.4173140823841095 -1.8603399931649278e-09 -3.713889862311248e-09 -6.690900056227633e-10 2.9055399894714355 0.9651829600334167 0.10290199518203735 -1.8603300011577062e-09 -3.7139098463256914e-09 -6.690869525094456e-10 10.27859878540039 0.73180091381073 0.025912316516041756 -1.860349874149847e-09 -3.7139098463256914e-09 -6.690809573051126e-10 2.221669912338257 -0.733487069606781 -0.208919957280159 -1.1733700762319582e-13 4.595870125440049e-13 3.974199983859672e-13 -34.96580123901367 44.67980194091797 -53.17130661010742 28.419599533081055 -36.535396575927734 -77.90929412841797 0.8188379406929016 -24.79909896850586 3.7231898307800293 1.1020299117703303e-09 -4.100999984046894e-09 -6.118369699770199e-10 1.913339930936786e-09 -7.1150396685482065e-09 -1.0343499390330635e-09 1.1020199197631086e-09 -4.100999984046894e-09 -6.118269779697982e-10 -7.730909824371338 5.474879741668701 -0.4173140823841095 1.1020299117703303e-09 -4.100999984046894e-09 -6.118400230903376e-10 -2.9055399894714355 0.9651829600334167 -0.10290199518203735 1.1020199197631086e-09 -4.100999984046894e-09 -6.118350270867268e-10 -10.27859878540039 0.73180091381073 -0.025912316516041756 1.1020299117703303e-09 -4.100969785980624e-09 -6.118459627835193e-10 -2.221669912338257 -0.733487069606781 0.208919957280159 -2.0321699480147914e-16 0.0 -3.8825099822884138e-19 -63.982398986816406 -57.12290573120117 -70.68689727783203 -4.0151896476745605 78.13524627685547 4.667169094085693 -4.299450397491455 -5.228879928588867 -14.893199920654297 2.0321699480147914e-16 0.0 3.8825099822884138e-19 9.10077953338623 4.038379669189453 3.5864295959472656 -0.08177189528942108 38.79240036010742 -2.819230079650879 13.652099609375 -20.918901443481445 36.3003044128418
0.37369999831914213 55.60380163679218 2.3364999794993757 8.666399002075195 21.142202377319336 10.939200401306152 -12.689199447631836 10.819602012634277 -3.685478925704956 5.521989822387695 -10.122499465942383 -0.7640751600265503 -6.254729270935059 14.428400993347168 -7.020540714263916 10.43019962310791 -32.12000274658203 -10.940399169921875 -0.0 0.0 -0.0 -0.0 0.0 -0.0 4.383229822396521e-14 4.0648995942253047e-14 -5.596779550226527e-13 48.385101318359375 32.44279861450195 -2.023611307144165 -28.044700622558594 -30.887907028198242 68.67070007324219 -0.011658299714326859 3.057029962539673 0.4300580322742462 -6.511550187937587e-10 -3.032210216247222e-08 3.4109000068838213e-09 -1.1157599288935671e-09 -5.2345399126352277e-08 5.890590237811466e-09 -6.511480243887036e-10 -3.032210216247222e-08 3.4108900148765997e-09 7.730909824371338 5.474879741668701 0.4173140823841095 -6.511540195930365e-10 -3.032210216247222e-08 3.4108900148765997e-09 2.9055399894714355 0.9651829600334167 0.10290199518203735 -6.511480243887036e-10 -3.032210216247222e-08 3.4109000068838213e-09 10.27859878540039 0.73180091381073 0.025912316516041756 -6.511640116002582e-10 -3.032210216247222e-08 3.4109000068838213e-09 2.221669912338257 -0.733487069606781 -0.208919957280159 4.3753798598545474e-14 4.065349876940065e-14 -5.599330135837299e-13 -34.27949905395508 42.95130157470703 -55.247501373291016 28.41809844970703 -36.55259704589844 -77.94259643554688 0.7968299388885498 -24.454702377319336 3.665609836578369 -9.892969776714722e-10 1.8267098944590998e-10 -1.8160198900218916e-09 -1.674850036437192e-09 1.8820799085883522e-10 -3.1522600085764907e-09 -9.892989760729165e-10 1.8267400092586428e-10 -1.8160100090369724e-09 -7.730909824371338 5.474879741668701 -0.4173140823841095 -9.892929808685835e-10 1.8267300172514211e-10 -1.8160198900218916e-09 -2.9055399894714355 0.9651829600334167 -0.10290199518203735 -9.893039720765273e-10 1.8267400092586428e-10 -1.8160198900218916e-09 -10.27859878540039 0.73180091381073 -0.025912316516041756 -9.892909824671392e-10 1.8269098733814104e-10 -1.8160299930514157e-09 -2.221669912338257 -0.733487069606781 0.208919957280159 -2.0321699480147914e-16 0.0 -3.8825099822884138e-19 -62.834999084472656 -57.874393463134766 -68.98809814453125 -3.7510104179382324 77.6054916381836 4.501840591430664 -4.7429094314575195 -6.027789115905762 -15.89690113067627 2.0321699480147914e-16 0.0 3.8825099822884138e-19 7.936680316925049 4.981080532073975 3.5217902660369873 -0.10439199209213257 37.261802673339844 -2.753469467163086 12.991901397705078 -19.7616024017334 36.55239486694336
